<?xml version="1.0" standalone="no"?>
<!DOCTYPE svg PUBLIC "-//W3C//DTD SVG 20010904//EN"
 "http://www.w3.org/TR/2001/REC-SVG-20010904/DTD/svg10.dtd">
<svg version="1.0" xmlns="http://www.w3.org/2000/svg"
 width="225.000000pt" height="225.000000pt" viewBox="0 0 225.000000 225.000000"
 preserveAspectRatio="xMidYMid meet">

<g transform="translate(0.000000,225.000000) scale(0.100000,-0.100000)"
fill="#000000" stroke="none">
<path d="M748 1731 l-33 -29 -5 -125 c-6 -141 -14 -159 -78 -174 -32 -8 -37
-13 -37 -38 0 -25 5 -30 34 -36 66 -14 75 -34 81 -175 l5 -126 33 -29 c36 -32
82 -38 102 -14 18 22 6 42 -35 59 l-35 15 0 106 c0 103 -9 141 -41 186 -10 13
-7 22 12 48 21 29 25 46 29 153 4 102 8 122 23 129 9 5 25 13 35 18 9 4 17 19
17 32 0 20 -6 24 -37 27 -29 2 -43 -3 -70 -27z"/>
<path d="M1354 1745 c-8 -21 2 -44 23 -51 47 -14 48 -17 53 -142 4 -104 8
-124 27 -151 l23 -30 -25 -47 c-22 -41 -25 -59 -25 -150 0 -104 -10 -134 -44
-134 -21 0 -38 -27 -31 -50 11 -34 70 -27 111 14 l34 34 0 115 c0 106 2 118
23 142 12 15 38 30 57 34 30 6 35 11 35 36 0 25 -5 30 -37 38 -64 15 -72 33
-78 174 l-5 125 -33 29 c-36 33 -98 41 -108 14z"/>
<path d="M268 358 c2 -315 3 -323 23 -340 20 -17 75 -18 834 -18 759 0 814 1
834 18 20 17 21 25 23 340 l3 322 -860 0 -860 0 3 -322z m612 172 c19 -6 44
-17 55 -25 19 -15 19 -16 -2 -37 -19 -19 -26 -20 -48 -10 -95 43 -154 -25
-143 -164 8 -95 62 -135 140 -103 26 11 32 10 51 -9 21 -22 21 -22 2 -37 -52
-39 -130 -41 -190 -4 -98 59 -111 262 -23 345 51 49 97 61 158 44z m333 1 c50
-12 52 -15 33 -42 -13 -19 -23 -22 -64 -20 -56 3 -75 -13 -70 -56 2 -22 15
-34 63 -60 78 -44 95 -65 95 -118 0 -100 -97 -147 -212 -103 -24 9 -27 14 -21
37 8 34 8 34 31 22 12 -6 41 -11 66 -11 37 0 48 4 61 24 23 34 7 59 -59 96
-71 41 -98 71 -99 114 -1 50 22 86 68 107 46 21 55 22 108 10z m320 -7 c19 -6
22 -21 7 -44 -6 -10 -26 -15 -62 -15 -46 0 -54 -3 -67 -27 -14 -24 -14 -28 4
-49 11 -12 38 -30 60 -40 71 -32 95 -63 95 -123 0 -77 -82 -126 -179 -105 -58
12 -64 18 -55 53 5 22 9 24 31 15 34 -13 107 -11 121 3 7 7 12 25 12 40 0 21
-8 33 -32 47 -87 51 -106 65 -121 91 -23 38 -21 71 6 111 35 52 98 67 180 43z"/>
</g>
</svg>
