<?xml version="1.0" standalone="yes"?>
<svg xmlns="http://www.w3.org/2000/svg" width="259" height="194">
<path style="fill:#ffffff; stroke:none;" d="M0 0L0 194L259 194L259 0L0 0z"/>
<path style="fill:#fcc95a; stroke:none;" d="M102.667 37.3333L103.333 37.6667L102.667 37.3333z"/>
<path style="fill:#fddba2; stroke:none;" d="M104 37L105 38L104 37z"/>
<path style="fill:#ffc82a; stroke:none;" d="M101 38L102 39L101 38z"/>
<path style="fill:#fa950c; stroke:none;" d="M86 133C101.502 122.08 114.589 105.411 128 92C131.709 88.2905 141.45 81.6208 141.698 76C141.967 69.8818 133.753 58.5666 130 54L129 54L122 67L120 67C117.705 59.0471 112.616 51.1335 108.421 44.0046C107.394 42.2603 105.283 37.6362 102.521 39.1759C98.0326 41.6781 97.9707 58.2545 97.2716 63C93.8672 86.1102 91.5864 110.324 86 133z"/>
<path style="fill:#fcc95a; stroke:none;" d="M105 38L106 39L105 38z"/>
<path style="fill:#fddba2; stroke:none;" d="M100.333 39.6667L100.667 40.3333L100.333 39.6667z"/>
<path style="fill:#fcc95a; stroke:none;" d="M106 40L107 41L106 40M100 41L101 42L100 41z"/>
<path style="fill:#fddba2; stroke:none;" d="M107 41L108 42L107 41z"/>
<path style="fill:#ffc82a; stroke:none;" d="M100 42L101 43L100 42z"/>
<path style="fill:#fcc95a; stroke:none;" d="M107 42L108 43L107 42z"/>
<path style="fill:#fddba2; stroke:none;" d="M108 43L109 44L108 43z"/>
<path style="fill:#ffc82a; stroke:none;" d="M108 44L109 45L108 44z"/>
<path style="fill:#fddba2; stroke:none;" d="M99 45L99 48L100 48L99 45M109 45L110 46L109 45M110 47L111 48L110 47z"/>
<path style="fill:#fcc95a; stroke:none;" d="M99 48L100 49L99 48z"/>
<path style="fill:#fddba2; stroke:none;" d="M111 49L112 50L111 49z"/>
<path style="fill:#fcc95a; stroke:none;" d="M112 51L113 52L112 51z"/>
<path style="fill:#fddba2; stroke:none;" d="M98.3333 52.6667L98.6667 53.3333L98.3333 52.6667z"/>
<path style="fill:#fcc95a; stroke:none;" d="M113 53L114 54L113 53M98 54L99 55L98 54z"/>
<path style="fill:#fddba2; stroke:none;" d="M114 54L115 55L114 54z"/>
<path style="fill:#fcc95a; stroke:none;" d="M128 54L129 55L128 54M130 54L131 55L130 54z"/>
<path style="fill:#ffc82a; stroke:none;" d="M98 55L99 56L98 55z"/>
<path style="fill:#fcc95a; stroke:none;" d="M114 55L115 56L114 55z"/>
<path style="fill:#ffc82a; stroke:none;" d="M127 55L128 56L127 55M131 55L132 56L131 55z"/>
<path style="fill:#fddba2; stroke:none;" d="M115 56L116 57L115 56M126 56L127 57L126 56M132 56L133 57L132 56z"/>
<path style="fill:#ffc82a; stroke:none;" d="M115 57L116 58L115 57z"/>
<path style="fill:#fddba2; stroke:none;" d="M97.3333 58.6667L97.6667 59.3333L97.3333 58.6667M116 58L117 59L116 58M125 58L126 59L125 58M133 58L134 59L133 58z"/>
<path style="fill:#fcc95a; stroke:none;" d="M97.3333 60.6667L97.6667 61.3333L97.3333 60.6667z"/>
<path style="fill:#fddba2; stroke:none;" d="M117 60L118 61L117 60M124 60L125 61L124 60M134 60L135 61L134 60M159 61L160 62L159 61M118 62L119 63L118 62z"/>
<path style="fill:#fcc95a; stroke:none;" d="M123 62L124 63L123 62M135 62L136 63L135 62M157 62C134.386 84.6141 105.398 106.881 87 133L139 82L157 62z"/>
<path style="fill:#ffc82a; stroke:none;" d="M86 133L86 134C98.3784 139.626 115.304 155.728 129 155.901C142.842 156.077 160.516 139.648 173 134L165.08 86L160 62L138 82L86 133z"/>
<path style="fill:#fcc95a; stroke:none;" d="M160 62L161 63L160 62z"/>
<path style="fill:#fddba2; stroke:none;" d="M161 63L162 64L161 63M96 64L96 67L97 67L96 64z"/>
<path style="fill:#fcc95a; stroke:none;" d="M119 64L120 65L119 64M122 64L123 65L122 64M136 64L137 65L136 64M161 64L162 65L161 64M120.667 66.3333L121.333 66.6667L120.667 66.3333M137 66L138 67L137 66M96 67L97 68L96 67z"/>
<path style="fill:#fddba2; stroke:none;" d="M138 67L139 68L138 67M162 67L162 70L163 70L162 67z"/>
<path style="fill:#ffc82a; stroke:none;" d="M96 68L97 69L96 68z"/>
<path style="fill:#fcc95a; stroke:none;" d="M138 68L139 69L138 68z"/>
<path style="fill:#fddba2; stroke:none;" d="M139 69L140 70L139 69z"/>
<path style="fill:#fcc95a; stroke:none;" d="M139 70L140 71L139 70M162 70L163 71L162 70z"/>
<path style="fill:#fddba2; stroke:none;" d="M95.3333 71.6667L95.6667 72.3333L95.3333 71.6667M140 71L141 72L140 71z"/>
<path style="fill:#ffc82a; stroke:none;" d="M140 72L141 73L140 72z"/>
<path style="fill:#fcc95a; stroke:none;" d="M95.3333 73.6667L95.6667 74.3333L95.3333 73.6667z"/>
<path style="fill:#fddba2; stroke:none;" d="M141 73L142 74L141 73M163 73L163 76L164 76L163 73M142 75L143 76L142 75z"/>
<path style="fill:#fcc95a; stroke:none;" d="M163 76L164 77L163 76z"/>
<path style="fill:#fddba2; stroke:none;" d="M94.3333 77.6667L94.6667 78.3333L94.3333 77.6667z"/>
<path style="fill:#fcc95a; stroke:none;" d="M94.3333 79.6667L94.6667 80.3333L94.3333 79.6667z"/>
<path style="fill:#fddba2; stroke:none;" d="M164.333 80.6667L164.667 81.3333L164.333 80.6667z"/>
<path style="fill:#fcc95a; stroke:none;" d="M164 82L165 83L164 82z"/>
<path style="fill:#fddba2; stroke:none;" d="M93.3333 84.6667L93.6667 85.3333L93.3333 84.6667z"/>
<path style="fill:#fcc95a; stroke:none;" d="M93 86L94 87L93 86z"/>
<path style="fill:#fddba2; stroke:none;" d="M165.333 86.6667L165.667 87.3333L165.333 86.6667z"/>
<path style="fill:#ffc82a; stroke:none;" d="M93 87L94 88L93 87z"/>
<path style="fill:#fcc95a; stroke:none;" d="M165 88L166 89L165 88z"/>
<path style="fill:#fddba2; stroke:none;" d="M92.3333 90.6667L92.6667 91.3333L92.3333 90.6667z"/>
<path style="fill:#fcc95a; stroke:none;" d="M92.3333 92.6667L92.6667 93.3333L92.3333 92.6667z"/>
<path style="fill:#fddba2; stroke:none;" d="M166.333 92.6667L166.667 93.3333L166.333 92.6667z"/>
<path style="fill:#fcc95a; stroke:none;" d="M166 94L167 95L166 94z"/>
<path style="fill:#fddba2; stroke:none;" d="M91 96L91 99L92 99L91 96M167 98L167 101L168 101L167 98z"/>
<path style="fill:#fcc95a; stroke:none;" d="M91 99L92 100L91 99z"/>
<path style="fill:#fddba2; stroke:none;" d="M90.3333 103.667L90.6667 104.333L90.3333 103.667M168 104L168 107L169 107L168 104z"/>
<path style="fill:#fcc95a; stroke:none;" d="M90 105L91 106L90 105z"/>
<path style="fill:#ffc82a; stroke:none;" d="M90 106L91 107L90 106z"/>
<path style="fill:#fddba2; stroke:none;" d="M89 109L89 112L90 112L89 109M169 110L169 113L170 113L169 110z"/>
<path style="fill:#fcc95a; stroke:none;" d="M89 112L90 113L89 112M169 113L170 114L169 113z"/>
<path style="fill:#fddba2; stroke:none;" d="M88.3333 116.667L88.6667 117.333L88.3333 116.667M170.333 117.667L170.667 118.333L170.333 117.667z"/>
<path style="fill:#fcc95a; stroke:none;" d="M88 118L89 119L88 118M170 119L171 120L170 119z"/>
<path style="fill:#fddba2; stroke:none;" d="M87.3333 122.667L87.6667 123.333L87.3333 122.667M171.333 123.667L171.667 124.333L171.333 123.667z"/>
<path style="fill:#fcc95a; stroke:none;" d="M87.3333 124.667L87.6667 125.333L87.3333 124.667M171 125L172 126L171 125z"/>
<path style="fill:#fddba2; stroke:none;" d="M86 128L86 131L87 131L86 128M172.333 129.667L172.667 130.333L172.333 129.667z"/>
<path style="fill:#fcc95a; stroke:none;" d="M86 131L87 132L86 131M172 131L173 132L172 131M87 134L88 135L87 134M171 134L172 135L171 134z"/>
<path style="fill:#fddba2; stroke:none;" d="M88 135L89 136L88 135z"/>
<path style="fill:#fcc95a; stroke:none;" d="M89 135L90 136L89 135M169 135L170 136L169 135z"/>
<path style="fill:#fddba2; stroke:none;" d="M170 135L171 136L170 135M90 136L91 137L90 136M168 136L169 137L168 136M92 137L93 138L92 137z"/>
<path style="fill:#fa950c; stroke:none;" d="M93 137L94 138L93 137M165 137L166 138L165 137z"/>
<path style="fill:#fddba2; stroke:none;" d="M166 137L167 138L166 137M94 138L95 139L94 138z"/>
<path style="fill:#fa950c; stroke:none;" d="M163 138L164 139L163 138z"/>
<path style="fill:#fddba2; stroke:none;" d="M164 138L165 139L164 138z"/>
<path style="fill:#fcc95a; stroke:none;" d="M96 139L97 140L96 139M162 139L163 140L162 139z"/>
<path style="fill:#fddba2; stroke:none;" d="M97 140L98 141L97 140z"/>
<path style="fill:#fcc95a; stroke:none;" d="M98 140L99 141L98 140M160 140L161 141L160 140z"/>
<path style="fill:#fddba2; stroke:none;" d="M161 140L162 141L161 140M99 141L100 142L99 141M159 141L160 142L159 141M101 142L102 143L101 142z"/>
<path style="fill:#fa950c; stroke:none;" d="M102 142L103 143L102 142M156 142L157 143L156 142z"/>
<path style="fill:#fddba2; stroke:none;" d="M157 142L158 143L157 142z"/>
<path style="fill:#fcc95a; stroke:none;" d="M103 143L104 144L103 143z"/>
<path style="fill:#fa950c; stroke:none;" d="M154 143L155 144L154 143z"/>
<path style="fill:#fddba2; stroke:none;" d="M155 143L156 144L155 143M104 144L105 145L104 144z"/>
<path style="fill:#fcc95a; stroke:none;" d="M105 144L106 145L105 144M153 144L154 145L153 144z"/>
<path style="fill:#fddba2; stroke:none;" d="M106 145L107 146L106 145z"/>
<path style="fill:#fcc95a; stroke:none;" d="M107 145L108 146L107 145M151 145L152 146L151 145z"/>
<path style="fill:#fddba2; stroke:none;" d="M152 145L153 146L152 145M108 146L109 147L108 146M150 146L151 147L150 146M110 147L111 148L110 147z"/>
<path style="fill:#fa950c; stroke:none;" d="M147 147L148 148L147 147z"/>
<path style="fill:#fddba2; stroke:none;" d="M148 147L149 148L148 147z"/>
<path style="fill:#fcc95a; stroke:none;" d="M112 148L113 149L112 148z"/>
<path style="fill:#fa950c; stroke:none;" d="M145 148L146 149L145 148z"/>
<path style="fill:#fddba2; stroke:none;" d="M146 148L147 149L146 148M113 149L114 150L113 149z"/>
<path style="fill:#fcc95a; stroke:none;" d="M114 149L115 150L114 149M144 149L145 150L144 149z"/>
<path style="fill:#fddba2; stroke:none;" d="M115 150L116 151L115 150z"/>
<path style="fill:#fcc95a; stroke:none;" d="M142 150L143 151L142 150z"/>
<path style="fill:#fddba2; stroke:none;" d="M143 150L144 151L143 150M117 151L118 152L117 151z"/>
<path style="fill:#fa950c; stroke:none;" d="M118 151L119 152L118 151z"/>
<path style="fill:#fddba2; stroke:none;" d="M141 151L142 152L141 151M119 152L120 153L119 152z"/>
<path style="fill:#fa950c; stroke:none;" d="M138 152L139 153L138 152z"/>
<path style="fill:#fddba2; stroke:none;" d="M139 152L140 153L139 152z"/>
<path style="fill:#fcc95a; stroke:none;" d="M121 153L122 154L121 153z"/>
<path style="fill:#fa950c; stroke:none;" d="M136 153L137 154L136 153z"/>
<path style="fill:#fddba2; stroke:none;" d="M137 153L138 154L137 153M122 154L123 155L122 154z"/>
<path style="fill:#fcc95a; stroke:none;" d="M123 154L124 155L123 154M135 154L136 155L135 154z"/>
<path style="fill:#fddba2; stroke:none;" d="M124 155L125 156L124 155z"/>
<path style="fill:#fcc95a; stroke:none;" d="M133 155L134 156L133 155z"/>
<path style="fill:#fddba2; stroke:none;" d="M134 155L135 156L134 155M126 156L127 157L126 156z"/>
<path style="fill:#fcc95a; stroke:none;" d="M127 156L127 157L131 157L127 156z"/>
<path style="fill:#fddba2; stroke:none;" d="M131.667 156.333L132.333 156.667L131.667 156.333z"/>
</svg>
