<?xml version="1.0" standalone="no"?>
<!DOCTYPE svg PUBLIC "-//W3C//DTD SVG 20010904//EN"
 "http://www.w3.org/TR/2001/REC-SVG-20010904/DTD/svg10.dtd">
<svg version="1.0" xmlns="http://www.w3.org/2000/svg"
 width="225.000000pt" height="225.000000pt" viewBox="0 0 225.000000 225.000000"
 preserveAspectRatio="xMidYMid meet">

<g transform="translate(0.000000,225.000000) scale(0.100000,-0.100000)"
fill="#000000" stroke="none">
<path d="M1603 1212 c-129 -42 -199 -136 -197 -267 0 -50 7 -84 23 -120 40
-91 99 -136 284 -220 118 -53 147 -79 147 -132 0 -44 -14 -69 -48 -87 -97 -49
-218 -14 -284 83 l-16 23 -86 -48 c-47 -27 -86 -52 -86 -56 -1 -20 93 -117
140 -146 77 -46 140 -62 241 -62 224 0 353 108 352 296 -1 158 -69 234 -305
338 -117 53 -146 76 -154 128 -5 27 -1 40 21 66 24 29 32 32 82 32 51 0 58 -3
96 -40 22 -23 43 -39 46 -38 24 11 151 94 151 99 0 3 -14 25 -30 48 -76 105
-237 148 -377 103z"/>
<path d="M1017 1214 c-4 -4 -7 -180 -7 -391 0 -273 -3 -391 -12 -406 -19 -36
-40 -46 -97 -47 -47 0 -56 4 -85 33 -17 18 -36 41 -42 52 -10 17 -16 15 -97
-34 l-86 -52 20 -34 c32 -54 101 -111 165 -135 50 -18 74 -21 154 -18 138 6
209 46 259 145 35 71 42 158 39 533 l-3 355 -101 3 c-55 1 -103 0 -107 -4z"/>
</g>
</svg>
