<?xml version="1.0" standalone="yes"?>
<svg xmlns="http://www.w3.org/2000/svg" width="225" height="225">
<path style="fill:#ffffff; stroke:none;" d="M0 0L0 225L225 225L225 0L0 0z"/>
<path style="fill:#6dad49; stroke:none;" d="M103 29L104 30L103 29z"/>
<path style="fill:#599736; stroke:none;" d="M103 30L102 34C105.361 34 104 39.2088 104 42L104 68C104 98.1184 102.095 129.123 105 159C105.575 164.91 102.629 183.621 110 186.5C113.265 187.775 119.945 180.229 121.833 178C130.623 167.625 138.019 156.258 141.333 143C151.081 104.01 136.81 71.0359 111 42C107.82 38.422 106.31 33.0339 103 30z"/>
<path style="fill:#cbcbc8; stroke:none;" d="M102 31L103 32L102 31z"/>
<path style="fill:#6dad49; stroke:none;" d="M104 31L105 32L104 31z"/>
<path style="fill:#b9c2b2; stroke:none;" d="M102 32L103 33L102 32z"/>
<path style="fill:#6dad49; stroke:none;" d="M103 33C82.5497 56.965 62.2826 79.7276 63.1289 114C63.476 128.059 69.6541 140.72 71 154L73 154L72 156L101 189C105.06 173.306 104 158.9 104 143L104 77C104 64.5323 107.807 44.4558 103 33M105 33L106 34L105 33z"/>
<path style="fill:#b9c2b2; stroke:none;" d="M101 34L102 35L101 34z"/>
<path style="fill:#cbcbc8; stroke:none;" d="M106 34L107 35L106 34M100 35L98 38L100 35z"/>
<path style="fill:#6dad49; stroke:none;" d="M106 35L107 36L106 35z"/>
<path style="fill:#599736; stroke:none;" d="M100 36L101 37L100 36z"/>
<path style="fill:#cbcbc8; stroke:none;" d="M107 36L108 37L107 36z"/>
<path style="fill:#599736; stroke:none;" d="M99 37L100 38L99 37z"/>
<path style="fill:#b9c2b2; stroke:none;" d="M97 38L98 39L97 38z"/>
<path style="fill:#cbcbc8; stroke:none;" d="M108 38L109 39L108 38z"/>
<path style="fill:#b9c2b2; stroke:none;" d="M96 39L97 40L96 39z"/>
<path style="fill:#6dad49; stroke:none;" d="M109 40L110 41L109 40M110 41L111 42L110 41z"/>
<path style="fill:#b9c2b2; stroke:none;" d="M111 42L112 43L111 42M112 43L113 44L112 43M113 44L114 45L113 44M114 45L115 46L114 45M115 46L116 47L115 46M88 47L89 48L88 47z"/>
<path style="fill:#cbcbc8; stroke:none;" d="M116 47L117 48L116 47z"/>
<path style="fill:#b9c2b2; stroke:none;" d="M87 48L88 49L87 48z"/>
<path style="fill:#cbcbc8; stroke:none;" d="M117 48L118 49L117 48M86 49L87 50L86 49z"/>
<path style="fill:#599736; stroke:none;" d="M87 49L88 50L87 49M86 50L87 51L86 50z"/>
<path style="fill:#6dad49; stroke:none;" d="M120 52L121 53L120 52z"/>
<path style="fill:#cbcbc8; stroke:none;" d="M83 53L84 54L83 53z"/>
<path style="fill:#b9c2b2; stroke:none;" d="M121 53L122 54L121 53z"/>
<path style="fill:#599736; stroke:none;" d="M83 54L84 55L83 54z"/>
<path style="fill:#cbcbc8; stroke:none;" d="M122 54L123 55L122 54z"/>
<path style="fill:#b9c2b2; stroke:none;" d="M81 56L82 57L81 56z"/>
<path style="fill:#cbcbc8; stroke:none;" d="M80 57L81 58L80 57z"/>
<path style="fill:#599736; stroke:none;" d="M81 57L82 58L81 57z"/>
<path style="fill:#6dad49; stroke:none;" d="M124 57L125 58L124 57z"/>
<path style="fill:#cbcbc8; stroke:none;" d="M125 58L126 59L125 58z"/>
<path style="fill:#b9c2b2; stroke:none;" d="M79 59L80 60L79 59z"/>
<path style="fill:#599736; stroke:none;" d="M79 60L80 61L79 60z"/>
<path style="fill:#6dad49; stroke:none;" d="M126 60L127 61L126 60z"/>
<path style="fill:#cbcbc8; stroke:none;" d="M127 61L128 62L127 61M77 62L78 63L77 62z"/>
<path style="fill:#6dad49; stroke:none;" d="M128 63L129 64L128 63z"/>
<path style="fill:#b9c2b2; stroke:none;" d="M76 64L77 65L76 64z"/>
<path style="fill:#cbcbc8; stroke:none;" d="M129 64L130 65L129 64z"/>
<path style="fill:#599736; stroke:none;" d="M76 65L77 66L76 65z"/>
<path style="fill:#b9c2b2; stroke:none;" d="M75 66L76 67L75 66M130 66L131 67L130 66z"/>
<path style="fill:#599736; stroke:none;" d="M75 67L76 68L75 67z"/>
<path style="fill:#b9c2b2; stroke:none;" d="M74 68L75 69L74 68z"/>
<path style="fill:#6dad49; stroke:none;" d="M131 68L132 69L131 68z"/>
<path style="fill:#599736; stroke:none;" d="M74 69L75 70L74 69z"/>
<path style="fill:#b9c2b2; stroke:none;" d="M73 70L74 71L73 70z"/>
<path style="fill:#6dad49; stroke:none;" d="M132 70L133 71L132 70z"/>
<path style="fill:#599736; stroke:none;" d="M73 71L74 72L73 71z"/>
<path style="fill:#b9c2b2; stroke:none;" d="M72 72L73 73L72 72z"/>
<path style="fill:#6dad49; stroke:none;" d="M133 72L134 73L133 72z"/>
<path style="fill:#cbcbc8; stroke:none;" d="M71 74L72 75L71 74z"/>
<path style="fill:#6dad49; stroke:none;" d="M134 74L135 75L134 74z"/>
<path style="fill:#cbcbc8; stroke:none;" d="M70 76L71 77L70 76z"/>
<path style="fill:#b9c2b2; stroke:none;" d="M135 76L136 77L135 76M70 77L71 78L70 77z"/>
<path style="fill:#599736; stroke:none;" d="M70 78L71 79L70 78z"/>
<path style="fill:#b9c2b2; stroke:none;" d="M136 78L137 79L136 78z"/>
<path style="fill:#cbcbc8; stroke:none;" d="M69 79L70 80L69 79M137 80L138 81L137 80z"/>
<path style="fill:#599736; stroke:none;" d="M69 81L70 82L69 81z"/>
<path style="fill:#6dad49; stroke:none;" d="M137 81L138 82L137 81z"/>
<path style="fill:#cbcbc8; stroke:none;" d="M68 82L69 83L68 82z"/>
<path style="fill:#b9c2b2; stroke:none;" d="M138 83L139 84L138 83z"/>
<path style="fill:#599736; stroke:none;" d="M68 84L69 85L68 84z"/>
<path style="fill:#6dad49; stroke:none;" d="M138 84L139 85L138 84z"/>
<path style="fill:#cbcbc8; stroke:none;" d="M67 85L68 86L67 85z"/>
<path style="fill:#b9c2b2; stroke:none;" d="M67 86L68 87L67 86M139 86L140 87L139 86z"/>
<path style="fill:#cbcbc8; stroke:none;" d="M66 89L67 90L66 89z"/>
<path style="fill:#b9c2b2; stroke:none;" d="M140 89L141 90L140 89M66 90L67 91L66 90M141 92L142 93L141 92z"/>
<path style="fill:#cbcbc8; stroke:none;" d="M65 93L66 94L65 93z"/>
<path style="fill:#6dad49; stroke:none;" d="M141 93L142 94L141 93z"/>
<path style="fill:#b9c2b2; stroke:none;" d="M65 94L66 95L65 94z"/>
<path style="fill:#cbcbc8; stroke:none;" d="M142 95L143 96L142 95z"/>
<path style="fill:#599736; stroke:none;" d="M65 96L66 97L65 96z"/>
<path style="fill:#b9c2b2; stroke:none;" d="M142 96L143 97L142 96z"/>
<path style="fill:#6dad49; stroke:none;" d="M142 97L143 98L142 97z"/>
<path style="fill:#cbcbc8; stroke:none;" d="M64 98L65 99L64 98z"/>
<path style="fill:#b9c2b2; stroke:none;" d="M64.3333 99.6667L64.6667 100.333L64.3333 99.6667z"/>
<path style="fill:#cbcbc8; stroke:none;" d="M143 99L144 100L143 99z"/>
<path style="fill:#b9c2b2; stroke:none;" d="M143 100L144 101L143 100z"/>
<path style="fill:#6dad49; stroke:none;" d="M143.333 101.667L143.667 102.333L143.333 101.667z"/>
<path style="fill:#cbcbc8; stroke:none;" d="M63.3333 105.667L63.6667 106.333L63.3333 105.667M144.333 105.667L144.667 106.333L144.333 105.667z"/>
<path style="fill:#b9c2b2; stroke:none;" d="M63 107L63 110L64 110L63 107M144 107L145 108L144 107z"/>
<path style="fill:#6dad49; stroke:none;" d="M144 108L144 111L145 111L144 108z"/>
<path style="fill:#b9c2b2; stroke:none;" d="M63 117L63 120L64 120L63 117z"/>
<path style="fill:#cbcbc8; stroke:none;" d="M63 120L63 123L64 123L63 120z"/>
<path style="fill:#599736; stroke:none;" d="M64 125L65 126L64 125z"/>
<path style="fill:#6dad49; stroke:none;" d="M144 125L144 128L145 128L144 125z"/>
<path style="fill:#b9c2b2; stroke:none;" d="M64.3333 128.667L64.6667 129.333L64.3333 128.667M144 128L145 129L144 128z"/>
<path style="fill:#cbcbc8; stroke:none;" d="M144.333 129.667L144.667 130.333L144.333 129.667M64 130L65 131L64 130z"/>
<path style="fill:#6dad49; stroke:none;" d="M143.333 133.667L143.667 134.333L143.333 133.667z"/>
<path style="fill:#b9c2b2; stroke:none;" d="M65 135L66 136L65 135M143 135L144 136L143 135z"/>
<path style="fill:#cbcbc8; stroke:none;" d="M65.3333 136.667L65.6667 137.333L65.3333 136.667M143 136L144 137L143 136z"/>
<path style="fill:#6dad49; stroke:none;" d="M142 138L143 139L142 138z"/>
<path style="fill:#b9c2b2; stroke:none;" d="M142 139L143 140L142 139M66 140L67 141L66 140z"/>
<path style="fill:#cbcbc8; stroke:none;" d="M142 140L143 141L142 140M66 141L67 142L66 141z"/>
<path style="fill:#599736; stroke:none;" d="M67 142L68 143L67 142z"/>
<path style="fill:#6dad49; stroke:none;" d="M141 142L142 143L141 142z"/>
<path style="fill:#b9c2b2; stroke:none;" d="M141 143L142 144L141 143z"/>
<path style="fill:#cbcbc8; stroke:none;" d="M67 144L68 145L67 144z"/>
<path style="fill:#599736; stroke:none;" d="M68 145L69 146L68 145z"/>
<path style="fill:#b9c2b2; stroke:none;" d="M140 146L141 147L140 146z"/>
<path style="fill:#cbcbc8; stroke:none;" d="M68 147L69 148L68 147z"/>
<path style="fill:#b9c2b2; stroke:none;" d="M69 149L70 150L69 149M139 149L140 150L139 149z"/>
<path style="fill:#599736; stroke:none;" d="M70 150L71 151L70 150z"/>
<path style="fill:#b9c2b2; stroke:none;" d="M70 151L71 152L70 151z"/>
<path style="fill:#6dad49; stroke:none;" d="M138 151L139 152L138 151z"/>
<path style="fill:#599736; stroke:none;" d="M71 152L72 153L71 152z"/>
<path style="fill:#cbcbc8; stroke:none;" d="M138 152L139 153L138 152M71 154L72 155L71 154z"/>
<path style="fill:#599736; stroke:none;" d="M72 154L73 155L72 154z"/>
<path style="fill:#cbcbc8; stroke:none;" d="M137 154L138 155L137 154z"/>
<path style="fill:#599736; stroke:none;" d="M73 156L74 157L73 156z"/>
<path style="fill:#b9c2b2; stroke:none;" d="M136 156L137 157L136 156M73 157L74 158L73 157z"/>
<path style="fill:#599736; stroke:none;" d="M74 158L75 159L74 158z"/>
<path style="fill:#b9c2b2; stroke:none;" d="M135 158L136 159L135 158M74 159L75 160L74 159z"/>
<path style="fill:#cbcbc8; stroke:none;" d="M134 160L135 161L134 160M75 161L76 162L75 161z"/>
<path style="fill:#6dad49; stroke:none;" d="M133 161L134 162L133 161z"/>
<path style="fill:#599736; stroke:none;" d="M77 163L78 164L77 163z"/>
<path style="fill:#6dad49; stroke:none;" d="M132 163L133 164L132 163z"/>
<path style="fill:#cbcbc8; stroke:none;" d="M77 164L78 165L77 164M131 165L132 166L131 165z"/>
<path style="fill:#6dad49; stroke:none;" d="M130 166L131 167L130 166z"/>
<path style="fill:#cbcbc8; stroke:none;" d="M79 167L80 168L79 167z"/>
<path style="fill:#b9c2b2; stroke:none;" d="M80 168L81 169L80 168M104 168L104 172L105 172L104 168z"/>
<path style="fill:#cbcbc8; stroke:none;" d="M129 168L130 169L129 168z"/>
<path style="fill:#b9c2b2; stroke:none;" d="M128 169L129 170L128 169z"/>
<path style="fill:#599736; stroke:none;" d="M82 170L84 172L82 170z"/>
<path style="fill:#6dad49; stroke:none;" d="M127 170L128 171L127 170z"/>
<path style="fill:#cbcbc8; stroke:none;" d="M82 171L83 172L82 171z"/>
<path style="fill:#b9c2b2; stroke:none;" d="M83 172L84 173L83 172z"/>
<path style="fill:#cbcbc8; stroke:none;" d="M104 172L104 178L105 178L104 172M126 172L127 173L126 172z"/>
<path style="fill:#b9c2b2; stroke:none;" d="M84 173L85 174L84 173M125 173L126 174L125 173z"/>
<path style="fill:#6dad49; stroke:none;" d="M105 174L105 177L106 177L105 174M124 174L125 175L124 174M123 175L124 176L123 175z"/>
<path style="fill:#b9c2b2; stroke:none;" d="M103 176L101 187C101.775 193.608 101.173 208.265 108 211C108 203.177 106.772 194.901 111 188L111 187L106 184L107 181L106 177L103 176z"/>
<path style="fill:#599736; stroke:none;" d="M89 178L93 182L89 178z"/>
<path style="fill:#cbcbc8; stroke:none;" d="M89 179L90 180L89 179M103 179L103 182L104 182L103 179M105.333 179.667L105.667 180.333L105.333 179.667M90 180L91 181L90 180z"/>
<path style="fill:#6dad49; stroke:none;" d="M106 180L107 181L106 180z"/>
<path style="fill:#cbcbc8; stroke:none;" d="M91 181L92 182L91 181M106.333 182.667L106.667 183.333L106.333 182.667z"/>
<path style="fill:#6dad49; stroke:none;" d="M107 183L108 184L107 183M115 183L116 184L115 183M114 184L115 185L114 184z"/>
<path style="fill:#cbcbc8; stroke:none;" d="M102 185L102 188L103 188L102 185M107 185L110 188L107 185z"/>
<path style="fill:#b9c2b2; stroke:none;" d="M113 185L114 186L113 185M97 186L98 187L97 186z"/>
<path style="fill:#cbcbc8; stroke:none;" d="M98 187L99 188L98 187z"/>
<path style="fill:#599736; stroke:none;" d="M99 187L100 188L99 187z"/>
<path style="fill:#cbcbc8; stroke:none;" d="M101 188L102 189L101 188M109 189L110 190L109 189M101.333 191.667L101.667 192.333L101.333 191.667M108.333 192.667L108.667 193.333L108.333 192.667M102.333 196.667L102.667 197.333L102.333 196.667M103 205L103 210L104 210L103 205M105 210L106 211L105 210z"/>
</svg>
