<?xml version="1.0" standalone="yes"?>
<svg xmlns="http://www.w3.org/2000/svg" width="225" height="225">
<path style="fill:#ffffff; stroke:none;" d="M0 0L0 113C5.67492 110.922 11.0434 105.435 17 104.492C20.2296 103.981 23.3402 106.337 26 107.85C39.1505 115.33 36 126.283 36 140C31.9077 138.51 26.3195 136.345 24.6034 131.957C22.8964 127.592 25.7076 118.06 18 118.167C10.2667 118.274 13.1435 127.49 11.3966 131.957C9.68053 136.345 4.09233 138.51 0 140L0 225L225 225L225 134C216.313 138.576 209.505 145.7 200 140C207.155 139.487 216.311 139.656 220.972 132.471C227.385 122.585 218.65 106.836 207 106.836C192.857 106.836 183.787 132.942 199 135L199 116L202 116L202 126C201.997 132.679 197.711 143.263 190.603 133.786C183.47 124.274 190.861 112.221 199 107.579C201.732 106.021 204.688 103.901 208 104.36C213.914 105.178 219.539 110.647 225 113L225 0L0 0z"/>
<path style="fill:#b2c49f; stroke:none;" d="M118 81L117 107L118 107C119.97 100.334 120.711 87.4617 118 81z"/>
<path style="fill:#3f3f35; stroke:none;" d="M119 81L119 107C93.9919 97.0382 83.7107 140.43 112 143.087C133.851 145.14 130 117.028 130 104C130 99.3161 131.484 91.4711 128.972 87.3287C126.972 84.0299 122.38 82.4148 119 81z"/>
<path style="fill:#595a52; stroke:none;" d="M120 81L121 82L120 81z"/>
<path style="fill:#b2c49f; stroke:none;" d="M121 81L122 82L121 81z"/>
<path style="fill:#595a52; stroke:none;" d="M122 82L123 83L122 82z"/>
<path style="fill:#b2c49f; stroke:none;" d="M124 83L125 84L124 83M126 84L127 85L126 84z"/>
<path style="fill:#595a52; stroke:none;" d="M127 85L128 86L127 85z"/>
<path style="fill:#b2c49f; stroke:none;" d="M128 85L129 86L128 85z"/>
<path style="fill:#595a52; stroke:none;" d="M129 86L130 87L129 86z"/>
<path style="fill:#b2c49f; stroke:none;" d="M130 88L130 133L131 133C131 120.258 134.91 99.7012 130 88M17.6667 103.333L18.3333 103.667L17.6667 103.333M206.667 103.333L207.333 103.667L206.667 103.333M15 104L16 105L15 104z"/>
<path style="fill:#595a52; stroke:none;" d="M16 104L17 105L16 104z"/>
<path style="fill:#3f3f35; stroke:none;" d="M1 139C4.51677 137.966 9.72602 136.246 11.3966 132.621C13.4648 128.134 9.84676 118.174 18 117.948C25.6792 117.735 22.8942 127.651 24.6034 131.907C26.2489 136.004 31.1046 137.854 35 139C35 132.107 37.2238 120.653 34.3966 114.329C28.948 102.141 8.65877 103.307 2.02778 113.529C-1.57144 119.078 1 132.494 1 139z"/>
<path style="fill:#b2c49f; stroke:none;" d="M20 104L21 105L20 104M63 104L64 105L63 104z"/>
<path style="fill:#83cc29; stroke:none;" d="M64 104.757C59.8359 105.562 50.4415 110.391 48.6034 114.379C43.3993 125.67 52.5424 146.007 67 142.793C71.2835 141.841 80.5976 136.966 82.3966 132.79C87.2888 121.434 78.298 101.992 64 104.757z"/>
<path style="fill:#595a52; stroke:none;" d="M111 104L112 105L111 104M113 104L114 105L113 104M158 104L159 105L158 104z"/>
<path style="fill:#3f3f35; stroke:none;" d="M170 138L170 137C165.611 134.105 152.782 129.585 153.466 123.09C154.418 114.049 165.462 119.017 166 126C181.831 120.204 175.483 107.373 161 104.913C156.278 104.111 147.739 109.75 144.434 112.904C141.422 115.779 142 120.192 142 124C142.001 139.598 157.708 145.515 170 138z"/>
<path style="fill:#b2c49f; stroke:none;" d="M161 104L162 105L161 104M204 104L205 105L204 104z"/>
<path style="fill:#83cc29; stroke:none;" d="M202 116L200 116C200 119.199 201.864 136.152 195.715 134.225C191.299 132.841 191.019 127.79 191.001 124C190.961 115.741 197.802 107.276 207 107.276C218.136 107.276 227.499 120.759 221.972 130.907C217.743 138.67 208.321 139.273 201 140C213.568 152.491 231.283 127.295 223.972 114.105C217.382 102.214 191.582 101.568 189.148 117.004C188.441 121.489 190.24 146.06 200.397 136.381C204.165 132.79 202 120.856 202 116z"/>
<path style="fill:#595a52; stroke:none;" d="M14 105L15 106L14 105M21 105L22 106L21 105z"/>
<path style="fill:#b2c49f; stroke:none;" d="M109 105L110 106L109 105z"/>
<path style="fill:#595a52; stroke:none;" d="M115 105L116 106L115 105M156 105L157 106L156 105z"/>
<path style="fill:#b2c49f; stroke:none;" d="M163 105L164 106L163 105M202 105L203 106L202 105M211 105L212 106L211 105M12 106L13 107L12 106z"/>
<path style="fill:#595a52; stroke:none;" d="M23 106L24 107L23 106z"/>
<path style="fill:#b2c49f; stroke:none;" d="M70 106L71 107L70 106M107 106L108 107L107 106z"/>
<path style="fill:#595a52; stroke:none;" d="M108 106L109 107L108 106M118 106L119 107L118 106z"/>
<path style="fill:#b2c49f; stroke:none;" d="M154 106L155 107L154 106z"/>
<path style="fill:#595a52; stroke:none;" d="M164 106L165 107L164 106z"/>
<path style="fill:#b2c49f; stroke:none;" d="M200 106L201 107L200 106M213 106L214 107L213 106M10 107L11 108L10 107M25 107L26 108L25 107M58 107L59 108L58 107M72 107L73 108L72 107z"/>
<path style="fill:#595a52; stroke:none;" d="M106 107L107 108L106 107z"/>
<path style="fill:#b2c49f; stroke:none;" d="M152 107L153 108L152 107z"/>
<path style="fill:#595a52; stroke:none;" d="M153 107L154 108L153 107z"/>
<path style="fill:#b2c49f; stroke:none;" d="M166 107L167 108L166 107M8 108L9 109L8 108z"/>
<path style="fill:#595a52; stroke:none;" d="M9 108L10 109L9 108M26 108L27 109L26 108z"/>
<path style="fill:#b2c49f; stroke:none;" d="M27 108L28 109L27 108M56 108L57 109L56 108M104 108L105 109L104 108z"/>
<path style="fill:#595a52; stroke:none;" d="M151 108L152 109L151 108z"/>
<path style="fill:#b2c49f; stroke:none;" d="M168 108L169 109L168 108M197 108L198 109L197 108M202 108L203 109L202 108M211 108L212 109L211 108M216 108L217 109L216 108z"/>
<path style="fill:#595a52; stroke:none;" d="M7 109L8 110L7 109M28 109L29 110L28 109z"/>
<path style="fill:#b2c49f; stroke:none;" d="M102 109L103 110L102 109M149 109L150 110L149 109z"/>
<path style="fill:#595a52; stroke:none;" d="M169 109L170 110L169 109z"/>
<path style="fill:#b2c49f; stroke:none;" d="M170 109L171 110L170 109M195 109L196 110L195 109M200 109L201 110L200 109M213 109L214 110L213 109M218 109L219 110L218 109M5 110L6 111L5 110M30 110L31 111L30 110M77 110L78 111L77 110M100 110L101 111L100 110z"/>
<path style="fill:#595a52; stroke:none;" d="M101 110L102 111L101 110z"/>
<path style="fill:#b2c49f; stroke:none;" d="M147 110L148 111L147 110z"/>
<path style="fill:#595a52; stroke:none;" d="M171 110L172 111L171 110z"/>
<path style="fill:#b2c49f; stroke:none;" d="M193 110L194 111L193 110M3 111L4 112L3 111M32 111L33 112L32 111M51 111L52 112L51 111M79 111L80 112L79 111z"/>
<path style="fill:#595a52; stroke:none;" d="M99 111L100 112L99 111z"/>
<path style="fill:#b2c49f; stroke:none;" d="M145 111L146 112L145 111z"/>
<path style="fill:#595a52; stroke:none;" d="M146 111L147 112L146 111z"/>
<path style="fill:#b2c49f; stroke:none;" d="M173 111L174 112L173 111z"/>
<path style="fill:#595a52; stroke:none;" d="M2 112L3 113L2 112M33 112L34 113L33 112z"/>
<path style="fill:#b2c49f; stroke:none;" d="M34 112L35 113L34 112M49 112L50 113L49 112M97 112L98 113L97 112z"/>
<path style="fill:#595a52; stroke:none;" d="M144 112L145 113L144 112z"/>
<path style="fill:#b2c49f; stroke:none;" d="M175 112L176 113L175 112M190 112L191 113L190 112M195 112L196 113L195 112M218 112L219 113L218 112M223 112L224 113L223 112M0 113L0 140L1 140L0 113M35 113L36 114L35 113M82 113L83 114L82 113M95 113L96 114L95 113M142 113L143 114L142 113z"/>
<path style="fill:#595a52; stroke:none;" d="M176 113L177 114L176 113z"/>
<path style="fill:#b2c49f; stroke:none;" d="M189 113L190 114L189 113M193 113L194 114L193 113M220 113L221 114L220 113M224 113L225 114L224 113z"/>
<path style="fill:#595a52; stroke:none;" d="M35 114L34 140L35 140C36.9703 133.334 37.7115 120.462 35 114M142 114L143 115L142 114z"/>
<path style="fill:#b2c49f; stroke:none;" d="M177 114L177 119L178 119L177 114M191 115L191 132L192 132L191 115M222 115L222 132L223 132L222 115M199 116L199 134L200 134L199 116z"/>
<path style="fill:#83cc29; stroke:none;" d="M216 129L204 126C207.866 139.018 225.28 126.402 213.982 122.848C211.697 122.129 209.309 121.649 207 121L207 119L218 121C216.277 115.544 204.23 113.689 205.176 120.886C205.757 125.311 213.786 124.983 216 129z"/>
<path style="fill:#b2c49f; stroke:none;" d="M215 116L216 117L215 116z"/>
<path style="fill:#595a52; stroke:none;" d="M16 117L17 118L16 117z"/>
<path style="fill:#b2c49f; stroke:none;" d="M17 117L18 118L17 117z"/>
<path style="fill:#595a52; stroke:none;" d="M19 117L20 118L19 117M111 117L112 118L111 117z"/>
<path style="fill:#b2c49f; stroke:none;" d="M112 117L113 118L112 117z"/>
<path style="fill:#595a52; stroke:none;" d="M113 117L114 118L113 117M158 117L159 118L158 117z"/>
<path style="fill:#b2c49f; stroke:none;" d="M160 117L161 118L160 117M205 117L206 118L205 117M15 118L16 119L15 118M20 118L21 119L20 118z"/>
<path style="fill:#595a52; stroke:none;" d="M21 118L22 119L21 118z"/>
<path style="fill:#b2c49f; stroke:none;" d="M110 118L111 119L110 118z"/>
<path style="fill:#ffffff; stroke:none;" d="M111.058 118.758C104.207 120.373 107.115 131.418 113.942 129.636C120.663 127.882 118.204 117.072 111.058 118.758z"/>
<path style="fill:#b2c49f; stroke:none;" d="M114 118L115 119L114 118z"/>
<path style="fill:#595a52; stroke:none;" d="M156 118L157 119L156 118z"/>
<path style="fill:#b2c49f; stroke:none;" d="M157 118L158 119L157 118z"/>
<path style="fill:#595a52; stroke:none;" d="M162 118L163 119L162 118z"/>
<path style="fill:#b2c49f; stroke:none;" d="M208 118L209 119L208 118M213 118L214 119L213 118M13 119L14 120L13 119M22 119L23 120L22 119z"/>
<path style="fill:#595a52; stroke:none;" d="M108 119L109 120L108 119z"/>
<path style="fill:#b2c49f; stroke:none;" d="M116 119L117 120L116 119M155 119L156 120L155 119M163 119L164 120L163 119M204 119L205 120L204 119M12 120L13 121L12 120M23 120L24 121L23 120z"/>
<path style="fill:#595a52; stroke:none;" d="M106 120L106 128L107 128L106 120M118 120L119 121L118 120M153 120L153 127L154 127L153 120z"/>
<path style="fill:#b2c49f; stroke:none;" d="M158 120L159 121L158 120z"/>
<path style="fill:#83cc29; stroke:none;" d="M156 122C160.317 132.145 165.959 118.273 156 122z"/>
<path style="fill:#b2c49f; stroke:none;" d="M160 120L161 121L160 120z"/>
<path style="fill:#595a52; stroke:none;" d="M165 120L166 121L165 120z"/>
<path style="fill:#b2c49f; stroke:none;" d="M176 120L177 121L176 120M215 120L216 121L215 120M118 121L118 127L119 127L118 121M162 121L163 122L162 121M165 121L165 126L166 126L165 121z"/>
<path style="fill:#595a52; stroke:none;" d="M174 121L175 122L174 121z"/>
<path style="fill:#b2c49f; stroke:none;" d="M175 121L176 122L175 121M204 121L205 122L204 121M173 122L174 123L173 122M212.667 122.333L213.333 122.667L212.667 122.333M156 123L156 126L157 126L156 123z"/>
<path style="fill:#595a52; stroke:none;" d="M171 123L172 124L171 123M169 124L170 125L169 124z"/>
<path style="fill:#b2c49f; stroke:none;" d="M170 124L171 125L170 124M208 124L209 125L208 124M168 125L169 126L168 125M214 125L215 126L214 125M161 126L162 127L161 126M166 126L167 127L166 126z"/>
<path style="fill:#595a52; stroke:none;" d="M118 127L119 128L118 127z"/>
<path style="fill:#b2c49f; stroke:none;" d="M154 127L155 128L154 127M159 127L160 128L159 127M108 128L109 129L108 128M116 128L117 129L116 128z"/>
<path style="fill:#595a52; stroke:none;" d="M117 128L118 129L117 128M155 128L156 129L155 128z"/>
<path style="fill:#b2c49f; stroke:none;" d="M207 128L208 129L207 128M215 128L216 129L215 128z"/>
<path style="fill:#595a52; stroke:none;" d="M109 129L110 130L109 129z"/>
<path style="fill:#b2c49f; stroke:none;" d="M110 129L111 130L110 129z"/>
<path style="fill:#595a52; stroke:none;" d="M115 129L116 130L115 129z"/>
<path style="fill:#b2c49f; stroke:none;" d="M157 129L158 130L157 129M204 129L205 130L204 129M209 129L209 130L214 130L209 129z"/>
<path style="fill:#595a52; stroke:none;" d="M111 130L112 131L111 130M113 130L114 131L113 130z"/>
<path style="fill:#b2c49f; stroke:none;" d="M159 130L160 131L159 130M205 130L206 131L205 130z"/>
<path style="fill:#595a52; stroke:none;" d="M160 131L161 132L160 131z"/>
<path style="fill:#b2c49f; stroke:none;" d="M161 131L162 132L161 131M207 131L208 132L207 131M215 131L216 132L215 131z"/>
<path style="fill:#595a52; stroke:none;" d="M162 132L163 133L162 132M24 133L25 134L24 133M142 133L143 134L142 133z"/>
<path style="fill:#b2c49f; stroke:none;" d="M164 133L165 134L164 133M189 133L190 134L189 133M193 133L194 134L193 133M220 133L221 134L220 133M224 133L225 134L224 133z"/>
<path style="fill:#595a52; stroke:none;" d="M10 134L11 135L10 134M25 134L26 135L25 134z"/>
<path style="fill:#b2c49f; stroke:none;" d="M48 134L49 135L48 134M95 134L96 135L95 134z"/>
<path style="fill:#595a52; stroke:none;" d="M129 134L130 135L129 134M143 134L144 135L143 134z"/>
<path style="fill:#b2c49f; stroke:none;" d="M166 134L167 135L166 134z"/>
<path style="fill:#595a52; stroke:none;" d="M8 135L9 136L8 135z"/>
<path style="fill:#b2c49f; stroke:none;" d="M9 135L10 136L9 135M26 135L27 136L26 135z"/>
<path style="fill:#595a52; stroke:none;" d="M27 135L28 136L27 135z"/>
<path style="fill:#b2c49f; stroke:none;" d="M50 135L51 136L50 135M80 135L81 136L80 135M96 135L97 136L96 135z"/>
<path style="fill:#595a52; stroke:none;" d="M97 135L98 136L97 135z"/>
<path style="fill:#b2c49f; stroke:none;" d="M128 135L129 136L128 135M144 135L145 136L144 135z"/>
<path style="fill:#595a52; stroke:none;" d="M167 135L168 136L167 135z"/>
<path style="fill:#b2c49f; stroke:none;" d="M191 135L192 136L191 135M197 135L198 136L197 135M217 135L218 136L217 135M222 135L223 136L222 135M7 136L8 137L7 136M28 136L29 137L28 136M78 136L79 137L78 136M98 136L99 137L98 136M126 136L127 137L126 136M146 136L147 137L146 136z"/>
<path style="fill:#595a52; stroke:none;" d="M169 136L170 137L169 136z"/>
<path style="fill:#b2c49f; stroke:none;" d="M193 136L194 137L193 136M215 136L216 137L215 136M220 136L221 137L220 136z"/>
<path style="fill:#595a52; stroke:none;" d="M5 137L6 138L5 137z"/>
<path style="fill:#b2c49f; stroke:none;" d="M30 137L31 138L30 137M100 137L101 138L100 137z"/>
<path style="fill:#595a52; stroke:none;" d="M124 137L125 138L124 137M148 137L149 138L148 137z"/>
<path style="fill:#b2c49f; stroke:none;" d="M170 137L171 138L170 137M195 137L196 138L195 137M213 137L214 138L213 137z"/>
<path style="fill:#595a52; stroke:none;" d="M3 138L4 139L3 138M32 138L33 139L32 138z"/>
<path style="fill:#b2c49f; stroke:none;" d="M55 138L56 139L55 138z"/>
<path style="fill:#595a52; stroke:none;" d="M102 138L103 139L102 138M122 138L123 139L122 138z"/>
<path style="fill:#b2c49f; stroke:none;" d="M123 138L124 139L123 138M149 138L150 139L149 138z"/>
<path style="fill:#595a52; stroke:none;" d="M150 138L151 139L150 138z"/>
<path style="fill:#b2c49f; stroke:none;" d="M169 138L170 139L169 138z"/>
<path style="fill:#595a52; stroke:none;" d="M1 139L2 140L1 139z"/>
<path style="fill:#b2c49f; stroke:none;" d="M2 139L3 140L2 139M33 139L34 140L33 139M35 139L36 140L35 139M57 139L58 140L57 139M73 139L74 140L73 139M103 139L104 140L103 139z"/>
<path style="fill:#595a52; stroke:none;" d="M104 139L105 140L104 139z"/>
<path style="fill:#b2c49f; stroke:none;" d="M121 139L122 140L121 139M151 139L152 140L151 139z"/>
<path style="fill:#595a52; stroke:none;" d="M167 139L168 140L167 139z"/>
<path style="fill:#b2c49f; stroke:none;" d="M201 139L202 140L201 139M210 139L211 140L210 139M215 139L216 140L215 139M71 140L72 141L71 140M105 140L106 141L105 140M119 140L120 141L119 140M153 140L154 141L153 140z"/>
<path style="fill:#595a52; stroke:none;" d="M165 140L166 141L165 140z"/>
<path style="fill:#b2c49f; stroke:none;" d="M166 140L167 141L166 140M200 140L201 141L200 140M205 140L206 141L205 140M208 140L209 141L208 140M213 140L214 141L213 140M107 141L108 142L107 141z"/>
<path style="fill:#595a52; stroke:none;" d="M117 141L118 142L117 141M155 141L156 142L155 141z"/>
<path style="fill:#b2c49f; stroke:none;" d="M164 141L165 142L164 141M62 142L63 143L62 142z"/>
<path style="fill:#595a52; stroke:none;" d="M109 142L110 143L109 142M115 142L116 143L115 142z"/>
<path style="fill:#b2c49f; stroke:none;" d="M116 142L117 143L116 142M156 142L157 143L156 142z"/>
<path style="fill:#595a52; stroke:none;" d="M157 142L158 143L157 142z"/>
<path style="fill:#b2c49f; stroke:none;" d="M162 142L163 143L162 142M64 143L65 144L64 143M66 143L67 144L66 143M110 143L111 144L110 143z"/>
<path style="fill:#595a52; stroke:none;" d="M111 143L112 144L111 143z"/>
<path style="fill:#b2c49f; stroke:none;" d="M114 143L115 144L114 143M158 143L159 144L158 143z"/>
<path style="fill:#595a52; stroke:none;" d="M159 143L160 144L159 143z"/>
<path style="fill:#b2c49f; stroke:none;" d="M160 143L161 144L160 143M205 143L206 144L205 143M208 143L209 144L208 143M112 144L113 145L112 144z"/>
</svg>
