<?xml version="1.0" standalone="no"?>
<!DOCTYPE svg PUBLIC "-//W3C//DTD SVG 20010904//EN"
 "http://www.w3.org/TR/2001/REC-SVG-20010904/DTD/svg10.dtd">
<svg version="1.0" xmlns="http://www.w3.org/2000/svg"
 width="225.000000pt" height="225.000000pt" viewBox="0 0 225.000000 225.000000"
 preserveAspectRatio="xMidYMid meet">

<g transform="translate(0.000000,225.000000) scale(0.100000,-0.100000)"
fill="#000000" stroke="none">
<path d="M0 1125 l0 -1125 1125 0 1125 0 0 1125 0 1125 -1125 0 -1125 0 0
-1125z m781 919 c81 -24 177 -77 265 -148 l79 -63 70 58 c268 222 484 224 550
6 29 -98 29 -180 -1 -383 l-6 -40 43 -13 c75 -22 222 -96 277 -140 143 -114
154 -239 32 -361 -45 -45 -85 -72 -172 -115 -62 -30 -127 -58 -145 -61 -18 -3
-33 -9 -33 -13 0 -3 7 -42 15 -86 27 -148 16 -292 -27 -380 -27 -54 -46 -73
-92 -97 -103 -53 -278 10 -457 163 l-56 48 -24 -25 c-45 -48 -144 -117 -225
-156 -86 -41 -163 -56 -229 -44 -49 10 -108 65 -135 129 -32 71 -39 228 -16
348 9 47 16 88 16 91 0 4 -24 14 -52 23 -91 30 -227 106 -285 159 -58 52 -103
130 -103 176 0 122 143 253 355 326 44 15 82 29 84 30 1 2 -5 46 -14 99 -23
129 -17 280 14 350 28 63 55 93 106 116 49 23 95 24 166 3z"/>
<path d="M637 1959 c-36 -21 -60 -90 -65 -183 -4 -86 11 -239 27 -264 5 -9 25
-8 82 2 40 8 102 17 136 21 l62 7 90 111 90 112 -42 39 c-130 120 -312 195
-380 155z"/>
<path d="M1480 1961 c-70 -22 -211 -113 -268 -173 l-22 -25 64 -78 c36 -43 75
-92 87 -109 21 -31 27 -33 138 -49 64 -10 128 -20 143 -23 25 -6 27 -3 39 53
7 32 13 108 14 168 0 172 -39 246 -129 244 -22 0 -52 -4 -66 -8z"/>
<path d="M1074 1644 c-88 -105 -94 -94 51 -94 l127 0 -30 38 c-17 20 -45 54
-64 76 l-34 39 -50 -59z"/>
<path d="M882 1383 c-27 -43 -71 -119 -98 -169 l-48 -90 48 -90 c27 -49 71
-123 97 -165 l49 -76 94 -6 c51 -4 139 -4 195 0 l102 6 63 106 c35 58 77 133
94 167 l30 60 -44 85 c-25 46 -68 121 -97 167 l-52 82 -191 0 -192 0 -50 -77z
m327 -93 c133 -68 132 -264 -1 -329 -147 -70 -295 49 -264 214 8 42 58 103
101 121 45 20 120 17 164 -6z"/>
<path d="M688 1428 c-34 -6 -58 -15 -58 -23 0 -11 25 -87 50 -150 l11 -30 32
60 c18 33 45 81 61 108 l28 47 -34 -1 c-18 -1 -59 -6 -90 -11z"/>
<path d="M1440 1436 c0 -2 22 -41 48 -87 27 -46 53 -92 58 -102 9 -15 16 -4
44 68 19 50 29 89 24 94 -17 15 -174 40 -174 27z"/>
<path d="M460 1366 c-178 -63 -300 -161 -300 -241 0 -45 42 -99 122 -155 64
-45 207 -110 242 -110 9 0 21 21 32 53 9 28 32 88 50 132 l34 79 -39 96 c-21
52 -44 112 -51 133 -6 20 -15 37 -18 37 -4 -1 -36 -11 -72 -24z"/>
<path d="M1704 1373 c-3 -10 -26 -69 -50 -132 l-44 -114 52 -131 c28 -72 53
-133 55 -135 6 -8 149 52 214 89 76 45 144 114 154 158 17 81 -102 183 -303
258 -75 29 -71 28 -78 7z"/>
<path d="M1494 911 c-34 -58 -61 -107 -60 -108 2 -3 179 28 187 32 8 5 -29
114 -54 160 -11 21 -16 16 -73 -84z"/>
<path d="M682 993 c-5 -10 -21 -50 -35 -89 l-26 -72 57 -10 c31 -6 77 -14 101
-17 l44 -7 -20 28 c-11 16 -39 64 -63 107 -23 42 -43 77 -46 77 -2 0 -7 -8
-12 -17z"/>
<path d="M589 711 c-6 -20 -13 -88 -16 -152 -7 -139 6 -205 48 -250 28 -30 32
-31 92 -27 77 7 162 47 265 125 40 30 75 59 78 64 3 5 -8 26 -26 47 -17 20
-57 71 -90 113 l-59 76 -78 7 c-42 4 -106 13 -140 20 l-63 14 -11 -37z"/>
<path d="M1540 729 c-52 -9 -112 -18 -132 -18 -31 -1 -42 -7 -65 -38 -15 -21
-55 -72 -90 -115 l-62 -76 44 -41 c55 -50 165 -122 223 -144 23 -10 64 -17 91
-17 43 0 52 4 79 34 37 42 52 108 52 219 -1 93 -20 209 -35 212 -5 1 -53 -6
-105 -16z"/>
<path d="M1019 671 c12 -16 41 -51 64 -77 l44 -48 34 38 c19 22 47 56 62 78
l29 38 -127 0 -126 0 20 -29z"/>
</g>
</svg>
