<?xml version="1.0" standalone="no"?>
<!DOCTYPE svg PUBLIC "-//W3C//DTD SVG 20010904//EN"
 "http://www.w3.org/TR/2001/REC-SVG-20010904/DTD/svg10.dtd">
<svg version="1.0" xmlns="http://www.w3.org/2000/svg"
 width="276.000000pt" height="182.000000pt" viewBox="0 0 276.000000 182.000000"
 preserveAspectRatio="xMidYMid meet">

<g transform="translate(0.000000,182.000000) scale(0.100000,-0.100000)"
fill="#000000" stroke="none">
<path d="M1269 1486 c-163 -58 -259 -223 -260 -443 0 -103 18 -185 62 -282 20
-45 28 -74 24 -92 -13 -58 52 -121 107 -104 89 27 86 140 -4 167 -35 10 -44
19 -64 63 -70 154 -73 341 -5 472 50 99 123 151 221 160 72 7 118 -8 165 -54
41 -40 92 -138 101 -195 6 -33 11 -39 42 -48 20 -5 37 -8 39 -7 8 8 -30 144
-53 192 -32 64 -105 138 -167 165 -50 23 -153 26 -208 6z"/>
<path d="M1270 1133 c-93 -35 -72 -167 27 -167 27 0 42 7 60 28 24 28 26 28
94 22 263 -26 482 -208 484 -402 0 -50 -5 -69 -30 -109 -17 -27 -50 -63 -74
-80 -38 -26 -53 -30 -124 -33 -55 -3 -96 1 -126 11 -43 15 -45 15 -78 -10 -18
-14 -33 -27 -33 -29 0 -12 143 -44 199 -44 336 0 451 331 202 581 -110 110
-250 172 -414 185 -58 5 -88 12 -102 25 -23 20 -63 31 -85 22z"/>
<path d="M877 898 c-38 -38 -68 -80 -89 -125 -28 -58 -32 -78 -32 -149 0 -68
4 -90 28 -137 84 -173 313 -212 556 -95 98 47 206 147 256 235 16 29 35 53 42
53 25 0 62 48 62 80 0 43 -47 90 -90 90 -45 0 -80 -38 -80 -88 0 -21 5 -43 11
-49 18 -18 -17 -71 -96 -149 -250 -247 -606 -217 -623 52 -4 54 0 73 22 117
14 29 44 73 67 98 38 41 40 46 32 84 l-8 39 -58 -56z"/>
</g>
</svg>
